<?xml version="1.0" encoding="utf-8"?>
<!-- Svg Vector Icons : http://www.onlinewebfonts.com/icon -->
<!DOCTYPE svg PUBLIC "-//W3C//DTD SVG 1.1//EN" "http://www.w3.org/Graphics/SVG/1.1/DTD/svg11.dtd">
<svg version="1.1" xmlns="http://www.w3.org/2000/svg" xmlns:xlink="http://www.w3.org/1999/xlink" x="0px" y="500px" viewBox="0 0 1000 1000" enable-background="new 0 0 1000 1000" xml:space="preserve" width="24px" height="24px">
<metadata> Svg Vector Icons : http://www.onlinewebfonts.com/icon </metadata>
<g><path d="M990,53.5c-13-15.8-26.1-31.6-39.1-47.4c-0.7,0-1.4,0-2.1,0c-4.6,9.5-28.1,24.8-37.1,31.9c-31.1,26.3-62.1,52.5-93.2,78.8c-21.1-24.5-42.2-49.1-63.3-73.6c-8.7-11-17.1-23.5-33-27.3c-23-5.5-27.7,16.1-30.9,31.9c-5.4,26.4-3.4,58.1-7.7,85.5c-0.9,13.9-1.7,27.8-2.6,41.7c-1.7,4.7-32.2,27.3-38.1,31.9c-34.5,28.7-69,57.3-103.5,86c-12.4-9.4-31.2-30.5-55.6-23.2c-17.8,5.3-36.3,28.5-50.5,39.6c-36.7,31.1-73.5,62.1-110.2,93.2c-18.7,15.8-37.4,31.6-56.1,47.4c-12.1,23.6,17.2,58.5,8.8,73.1c-3.6,6.3-11.9,11-17.5,15.4c-9.6,8.4-19.2,16.8-28.8,25.2c-11,8.7-23.6,17-30.9,29.3c-8.4,14.2-3.9,37.2-8.2,56.6c-4.6,20.3-16.1,36-27.3,49.9c-12.9,16-32.1,29-48.4,41.7c-24.7,20.8-49.4,41.5-74.1,62.3c-6.1,4.8-36.8,28.4-29.3,43.3c12.7,25.2,33.2,42.6,49.9,63.8c12.2,14.4,24.4,28.8,36.6,43.3c12,15.1,22.9,29.3,40.7,38.6c9.2,4.8,19.5-5.5,22.1-8.8c14.5-17.8,24.9-41,35.5-62.3c31.4-61.4,62.8-122.9,94.2-184.3c9.5-18.6,26.5-64.8,41.2-75.2c13.8,1.1,25.2,52.9,29.9,66.9c16.9,51.3,38.6,102.2,58.7,151.4c6.4,15.8,11.1,46.3,28.3,51c12.3,3.4,40.6-27.4,48.4-33.5c7.5-5.9,43-32.6,45.3-39.1c5.8-16.3-10.2-41.1-15.4-52c-14.6-33.1-29.2-66.3-43.8-99.4c-5.3-12.2-10.6-24.4-16-36.6c0.3-2.8,25.5-21.7,29.3-24.7c22.5-17.5,45.3-35.6,45.3-75.7c0.2-0.2,0.3-0.3,0.5-0.5c9.1,2.6,22.3,17.4,30.4,23.2c22.2,15.8,46.5,31.9,72.1,43.8c35.7,16.6,75.7,27.4,118.9,37.1c22.3,3.8,44.6,7.6,66.9,11.3c21.6,4.8,43.4,3,66.4,6.7c7.7,1.2,23.8,5,32.4,1.5c8.3-3.3,14.4-12.1,17.5-20.6c6.2-17.1,7.9-75.8,4.6-98.9c-2.3-16.1,2-30.1-8.2-37.6c-8-5.8-22.4-3.8-35.5-3.6c-22.8,0.3-46,2-67.5-2.1c-59.3-11.1-108.2-51.1-151.4-80.3c-11.7-7.9-39.5-21.5-42.7-36c-2.9-13.2,38.2-42.1,46.9-48.9c27.1-23.2,54.2-46.3,81.4-69.5c7.1-5.6,27.1-18.6,25.2-31.4c-2-13.6-16.9-19.1-21.6-30.4c70.5-59.6,141.1-119.1,211.6-178.7C989.7,54.8,989.8,54.2,990,53.5z M498.3,570.9c-6.6,24.2-28.4,46.6-47.9,57.7c-6.3-2-16.4-34.5-12.9-45.8c2.8-9,44.4-41.4,54.1-46.3c1.9,0.2,3.8,0.3,5.7,0.5C503.2,541.3,500.2,563.9,498.3,570.9z M741.3,182.2c-0.2,0-0.3,0-0.5,0c-4.4-13.5-9.2-43.7-6.2-56.6c1.5-1,3.1-2.1,4.6-3.1c9,1.3,29,25.8,33,33.5C761.9,164.7,751.6,173.4,741.3,182.2z"/></g>
</svg>